<?xml version="1.0" encoding="utf-8"?>
<!-- Generator: Adobe Illustrator 15.0.0, SVG Export Plug-In . SVG Version: 6.00 Build 0)  -->
<!DOCTYPE svg PUBLIC "-//W3C//DTD SVG 1.1//EN" "http://www.w3.org/Graphics/SVG/1.1/DTD/svg11.dtd">
<svg version="1.1" xmlns="http://www.w3.org/2000/svg" xmlns:xlink="http://www.w3.org/1999/xlink" x="0px" y="0px"
	 width="55.905px" height="12.246px" viewBox="0 0 55.905 12.246" enable-background="new 0 0 55.905 12.246" xml:space="preserve">
<g id="Layer_3">
</g>
<g id="Layer_2">
	<path fill="#FFFFFF" d="M45.955,0.617H39.11c-2.038,0-3.704,1.668-3.704,3.704v0.208c0,2.038,1.666,3.704,3.704,3.704h3.994
		l3.35,3.396V8.183c1.802-0.246,3.205-1.785,3.205-3.654V4.321C49.659,2.286,47.993,0.617,45.955,0.617z"/>
	<g>
		<path fill="#C6C6C6" d="M0,0.383c0-0.12,0.072-0.192,0.192-0.192H3.07c1.127,0,1.727,0.6,1.727,1.727v2.351
			c0,1.115-0.6,1.715-1.727,1.727L1.559,6.008v2.399c0,0.12-0.06,0.192-0.192,0.192L0.192,8.586C0.072,8.586,0,8.515,0,8.395V0.383z
			 M2.759,4.449c0.324,0,0.479-0.18,0.479-0.48V2.218c0-0.312-0.156-0.479-0.479-0.479l-1.2,0.012v2.71L2.759,4.449z"/>
		<path fill="#C6C6C6" d="M8.926,0.383c0-0.12,0.072-0.192,0.192-0.192h1.235c0.144,0,0.204,0.072,0.204,0.192v8.012
			c0,0.12-0.06,0.192-0.204,0.192H9.118c-0.12,0-0.192-0.072-0.192-0.192v-3.19H7.391v3.19c0,0.12-0.072,0.192-0.192,0.192H5.964
			c-0.144,0-0.204-0.072-0.204-0.192V0.383c0-0.12,0.06-0.192,0.204-0.192h1.235c0.12,0,0.192,0.072,0.192,0.192v3.238h1.535V0.383z
			"/>
		<path fill="#C6C6C6" d="M11.952,8.586c-0.132,0-0.192-0.072-0.192-0.192V0.383c0-0.12,0.06-0.192,0.192-0.192h1.248
			c0.12,0,0.192,0.072,0.192,0.192v8.012c0,0.12-0.072,0.192-0.192,0.192H11.952z"/>
		<path fill="#C6C6C6" d="M16.223,7.003h2.375c0.132,0,0.192,0.072,0.192,0.192v1.199c0,0.132-0.06,0.192-0.192,0.192h-3.814
			c-0.12,0-0.192-0.06-0.192-0.192V0.383c0-0.12,0.072-0.192,0.192-0.192h1.248c0.132,0,0.192,0.072,0.192,0.192V7.003z"/>
		<path fill="#C6C6C6" d="M24.01,8.586c-0.108,0-0.168-0.06-0.192-0.168l-0.384-1.511h-2.255l-0.372,1.511
			c-0.024,0.108-0.084,0.168-0.192,0.168H19.44c-0.132,0-0.192-0.072-0.156-0.204l1.991-8.023c0.024-0.12,0.096-0.168,0.204-0.168
			h1.667c0.108,0,0.18,0.048,0.204,0.168l1.991,8.023c0.036,0.132-0.024,0.204-0.168,0.204H24.01z M22.306,2.254l-0.755,3.262h1.511
			L22.306,2.254z"/>
		<path fill="#C6C6C6" d="M30.753,4.329c0,0.696-0.228,1.188-0.672,1.463l0.624,2.579c0.036,0.144-0.036,0.216-0.168,0.216h-1.176
			c-0.119,0-0.18-0.06-0.203-0.168l-0.576-2.363h-1.067v2.339c0,0.12-0.072,0.192-0.191,0.192h-1.176
			c-0.12,0-0.192-0.072-0.192-0.192V0.383c0-0.12,0.072-0.192,0.192-0.192h2.879c1.127,0,1.727,0.6,1.727,1.727V4.329z
			 M28.714,4.509c0.312,0,0.479-0.168,0.479-0.48V2.218c0-0.312-0.167-0.479-0.479-0.479h-1.199v2.771H28.714z"/>
		<path fill="#C6C6C6" d="M32.147,8.586c-0.133,0-0.192-0.072-0.192-0.192V0.383c0-0.12,0.06-0.192,0.192-0.192h1.247
			c0.12,0,0.191,0.072,0.191,0.192v8.012c0,0.12-0.071,0.192-0.191,0.192H32.147z"/>
		<path fill="#C6C6C6" d="M54.178,0.191c1.127,0,1.728,0.6,1.728,1.727v0.792c0,0.12-0.061,0.192-0.192,0.192h-1.211
			c-0.12,0-0.192-0.072-0.192-0.192V2.206c0-0.312-0.155-0.48-0.479-0.48h-0.66c-0.3,0-0.479,0.168-0.479,0.48v1.02l2.902,0.935
			c0.204,0.072,0.312,0.216,0.312,0.444v2.255c0,1.127-0.601,1.727-1.728,1.727h-1.343c-1.116,0-1.728-0.6-1.728-1.727V6.08
			c0-0.132,0.072-0.192,0.192-0.192h1.211c0.132,0,0.191,0.06,0.191,0.192v0.504c0,0.324,0.181,0.48,0.48,0.48h0.647
			c0.312,0,0.479-0.156,0.479-0.48V5.372l-2.878-0.936c-0.216-0.072-0.324-0.216-0.324-0.443V1.918c0-1.127,0.611-1.727,1.728-1.727
			H54.178z"/>
		<path fill="#C6C6C6" d="M45.955,0H39.11c-2.383,0-4.322,1.938-4.322,4.321v0.208c0,2.383,1.939,4.322,4.322,4.322h3.736
			l3.169,3.212c0.117,0.121,0.277,0.183,0.438,0.183c0.077,0,0.156-0.014,0.235-0.045c0.231-0.094,0.383-0.321,0.383-0.572V8.687
			c1.859-0.5,3.205-2.2,3.205-4.158V4.321C50.277,1.938,48.338,0,45.955,0z M49.043,4.529c0,1.526-1.148,2.833-2.673,3.044
			c-0.306,0.041-0.533,0.301-0.533,0.61v1.942l-2.293-2.325c-0.116-0.116-0.275-0.184-0.439-0.184H39.11
			c-1.703,0-3.088-1.384-3.088-3.087V4.321c0-1.702,1.385-3.086,3.088-3.086h6.845c1.702,0,3.088,1.385,3.088,3.086V4.529z"/>
	</g>
</g>
</svg>
